<?xml version="1.0" standalone="no"?>
<!DOCTYPE svg PUBLIC "-//W3C//DTD SVG 20010904//EN"
 "http://www.w3.org/TR/2001/REC-SVG-20010904/DTD/svg10.dtd">
<svg version="1.0" xmlns="http://www.w3.org/2000/svg"
 width="250.000000pt" height="250.000000pt" viewBox="0 0 250.000000 250.000000"
 preserveAspectRatio="xMidYMid meet">
<metadata>
Created by potrace 1.10, written by Peter Selinger 2001-2011
</metadata>
<g transform="translate(0.000000,250.000000) scale(0.100000,-0.100000)"
fill="#5f36c7" stroke="none">
<path d="M2100 2490 c0 -6 7 -13 15 -16 8 -4 15 -18 16 -33 1 -26 1 -26 10 4
5 19 5 31 -1 33 -6 2 -8 8 -4 13 3 5 -4 9 -15 9 -12 0 -21 -5 -21 -10z"/>
<path d="M2150 2452 c0 -5 5 -33 10 -62 9 -46 13 -88 24 -220 1 -14 7 -24 13
-23 7 2 10 -26 8 -87 -2 -52 1 -88 6 -84 5 3 9 29 9 57 1 44 5 55 25 70 14 10
29 16 33 13 5 -3 9 0 10 7 0 7 4 23 7 37 7 25 7 24 -13 -3 -10 -15 -29 -35
-41 -43 -20 -14 -21 -14 -21 13 0 31 40 154 53 164 4 3 10 23 12 45 3 21 3 33
-1 26 -3 -6 -10 -10 -14 -7 -5 3 -7 -8 -5 -24 2 -19 -1 -30 -7 -28 -6 1 -14
-9 -18 -23 l-7 -25 -11 25 c-7 17 -11 20 -11 8 -1 -22 -17 -32 -27 -17 -5 8
-3 9 6 4 9 -6 10 0 4 26 -5 19 -9 53 -9 77 0 23 -3 42 -7 42 -5 0 -8 6 -8 14
0 8 -4 18 -10 21 -5 3 -10 2 -10 -3z"/>
<path d="M1124 2413 c6 -31 15 -158 20 -271 2 -39 9 -78 15 -86 7 -8 11 -18 9
-22 -9 -37 57 -263 102 -345 20 -36 18 -69 -3 -69 -6 0 -8 -3 -4 -6 3 -3 -5
-18 -19 -32 -13 -15 -25 -30 -25 -34 -1 -5 -2 -12 -3 -17 0 -5 -17 -30 -36
-56 -19 -26 -34 -52 -32 -57 1 -6 -4 -21 -13 -35 -9 -13 -19 -47 -22 -76 -3
-29 -12 -64 -20 -79 -7 -16 -11 -28 -9 -28 3 0 0 -13 -5 -30 -6 -16 -15 -28
-19 -25 -5 3 -11 1 -14 -4 -3 -5 1 -11 9 -15 8 -3 15 -15 15 -26 0 -23 -10
-26 -29 -8 -11 11 -11 9 -2 -9 6 -13 21 -28 33 -34 19 -10 20 -9 15 17 -7 37
11 73 40 80 16 4 23 13 22 28 -1 15 -3 16 -6 4 -4 -16 -32 -33 -41 -24 -2 3
-1 13 3 23 5 10 7 22 6 26 0 4 6 21 14 37 8 16 15 47 15 68 0 34 19 70 31 58
2 -2 5 7 5 20 1 13 -2 21 -7 18 -5 -3 2 11 16 32 14 20 25 43 25 50 0 19 31
46 46 40 8 -3 14 -1 14 4 0 6 -7 10 -15 10 -13 0 -14 4 -4 23 15 29 50 67 61
67 5 0 6 -9 3 -20 -4 -14 -2 -20 7 -18 7 2 12 -4 11 -12 -2 -10 5 -16 17 -16
20 0 27 11 13 18 -11 4 -47 68 -89 158 -35 75 -71 192 -93 305 -11 53 -41 330
-41 378 0 9 -5 17 -11 17 -6 0 -8 -11 -5 -27z"/>
<path d="M2330 2377 c0 -4 7 -26 15 -51 19 -54 7 -183 -23 -261 -18 -47 -23
-138 -8 -152 3 -4 6 -17 6 -30 0 -27 7 -28 35 -7 19 15 19 15 1 12 -10 -2 -21
3 -23 10 -8 23 33 12 59 -15 29 -31 47 -113 26 -113 -8 0 -9 -3 -3 -8 6 -4 15
-22 22 -39 12 -35 8 -38 -39 -34 -11 2 -18 -5 -18 -16 0 -12 -3 -14 -8 -6 -4
7 -17 10 -30 6 -12 -3 -19 -9 -16 -14 3 -5 10 -7 15 -3 5 3 18 -4 27 -17 14
-16 24 -20 41 -14 21 6 21 7 4 20 -10 7 -15 17 -10 21 4 4 13 2 19 -4 15 -15
31 -16 22 0 -4 6 -3 8 4 4 19 -11 36 -76 23 -89 -6 -6 -11 -29 -11 -52 0 -30
-8 -50 -29 -76 -42 -50 -132 -110 -172 -114 -23 -2 -48 -16 -78 -45 -24 -23
-46 -39 -49 -36 -3 4 -14 -1 -24 -11 -10 -9 -18 -12 -18 -7 0 5 -11 10 -24 10
-19 1 -25 -4 -29 -25 -7 -33 -5 -34 19 -15 10 8 13 13 7 9 -7 -3 -13 -1 -13 4
0 6 9 11 20 11 31 0 24 -17 -18 -44 -20 -13 -43 -31 -51 -40 -7 -9 -20 -16
-27 -16 -8 0 -14 -5 -14 -10 0 -6 -11 -15 -25 -20 -14 -5 -25 -15 -25 -22 0
-7 -9 -19 -20 -26 -16 -10 -20 -10 -20 2 0 8 7 16 15 20 8 3 15 11 15 17 0 8
-4 8 -15 -1 -10 -9 -15 -9 -15 -1 0 6 -8 11 -18 11 -10 0 -22 3 -25 7 -14 13
-112 43 -142 42 -16 0 -24 -3 -17 -6 19 -7 15 -43 -5 -43 -30 -1 6 -16 55 -24
40 -6 42 -5 42 19 0 28 12 32 29 11 13 -15 4 -49 -10 -40 -5 3 -4 -7 1 -22 6
-15 9 -33 6 -41 -3 -7 -1 -13 4 -13 6 0 10 14 10 31 0 23 4 30 14 26 8 -3 17
1 20 9 3 8 -1 14 -9 14 -8 0 -15 5 -15 10 0 32 49 -10 50 -42 0 -22 -20 -34
-30 -18 -5 9 -9 9 -14 1 -4 -6 -2 -11 5 -11 8 0 8 -4 -1 -15 -7 -8 -19 -15
-27 -15 -7 0 -23 -16 -34 -35 -12 -19 -25 -35 -31 -35 -5 0 -6 5 -3 10 4 6
-10 10 -35 10 -26 0 -43 -5 -46 -14 -7 -18 -35 -30 -31 -14 1 7 -16 10 -49 9
-29 -1 -76 5 -105 13 -29 9 -65 16 -80 16 -25 0 -27 -3 -20 -26 5 -21 14 -27
39 -29 29 -2 32 0 26 17 -4 15 -2 19 7 16 8 -3 13 -12 11 -22 -2 -9 4 -17 13
-17 8 -1 20 -3 25 -4 6 -1 15 -3 21 -4 6 0 9 -7 6 -15 -3 -8 0 -17 8 -19 19
-8 27 4 14 20 -9 10 -7 13 10 13 13 0 21 -6 21 -16 0 -11 5 -14 16 -10 9 3 25
6 35 6 11 0 18 4 15 9 -3 4 -17 6 -31 3 -18 -3 -25 0 -25 12 0 9 5 16 11 16 5
0 7 -5 4 -10 -4 -7 8 -8 36 -4 31 5 40 4 35 -4 -4 -7 -1 -12 8 -12 20 0 20 5
0 24 -14 15 -13 16 10 16 14 0 28 -5 31 -11 6 -9 75 34 83 53 2 4 8 8 14 8 5
0 16 7 24 15 9 8 12 15 9 15 -6 0 11 15 106 92 66 53 103 78 117 78 7 0 10 4
7 10 -6 10 63 57 77 52 5 -1 7 3 5 8 -1 6 11 18 28 28 16 9 38 25 50 35 11 10
32 21 48 24 15 3 27 9 27 13 0 8 49 25 63 21 5 -1 6 3 3 8 -4 5 2 12 13 16 11
3 36 27 57 52 31 38 39 55 39 89 0 23 5 42 10 41 18 -3 18 93 -1 114 -9 10
-14 25 -11 32 3 8 1 19 -5 25 -5 5 -12 27 -14 48 -2 21 -6 51 -10 67 -7 32
-62 100 -75 92 -4 -3 -16 6 -25 20 -16 25 -16 30 6 98 12 40 24 83 26 97 18
117 8 194 -28 226 -10 10 -18 14 -18 11z m-584 -1269 c1 -10 -2 -18 -6 -18
-20 0 -40 13 -40 27 0 21 43 12 46 -9z"/>
<path d="M1874 2349 c-3 -6 -19 -9 -35 -5 -16 3 -29 2 -29 -3 0 -5 -6 -9 -12
-8 -48 1 -79 -6 -99 -23 l-24 -20 27 10 c23 8 26 7 21 -7 -5 -11 -3 -14 6 -8
7 4 34 9 59 11 26 2 58 7 72 10 14 4 45 8 70 9 38 2 49 -3 73 -26 30 -32 37
-35 37 -16 -1 17 -57 70 -68 63 -5 -3 -15 1 -22 9 -14 17 -66 20 -76 4z"/>
<path d="M1266 2331 c-4 -6 -12 -8 -19 -5 -32 12 -65 -62 -42 -92 16 -18 16
-18 10 4 -4 14 -2 22 6 22 8 0 8 5 -2 18 -7 9 -9 14 -4 9 4 -4 16 0 26 9 11
10 19 12 24 5 3 -6 18 -11 32 -11 15 0 52 -7 84 -16 39 -11 63 -13 74 -7 16 9
16 10 1 16 -10 4 -15 3 -11 -3 8 -13 -5 -13 -25 0 -13 9 -13 10 0 10 23 1 -51
33 -80 35 -14 0 -35 4 -47 8 -12 5 -24 3 -27 -2z"/>
<path d="M1770 2263 c-8 -3 -26 -14 -40 -23 -14 -9 -31 -15 -37 -13 -7 3 -13
0 -13 -6 0 -13 36 -6 66 14 25 16 33 8 12 -13 -8 -8 -8 -12 -1 -12 6 0 16 7
23 16 8 8 22 20 33 26 17 9 19 8 14 -6 -4 -10 2 -25 14 -37 19 -19 23 -19 42
-6 12 8 22 24 21 35 0 17 3 19 18 11 10 -6 15 -15 12 -21 -4 -7 -2 -8 5 -4 6
4 19 2 27 -5 10 -8 18 -9 25 -2 7 7 2 17 -17 32 -22 18 -39 21 -108 20 -44 0
-88 -3 -96 -6z"/>
<path d="M1476 2239 l19 -21 -38 16 c-21 8 -35 11 -32 6 3 -6 1 -10 -5 -10 -6
0 -8 -4 -5 -10 3 -5 11 -10 16 -10 6 0 7 5 4 10 -12 19 14 10 45 -16 27 -23
31 -32 27 -63 -6 -47 -17 -81 -27 -81 -4 0 -8 -10 -8 -22 -1 -13 -2 -32 -3
-43 -2 -11 -2 -41 -1 -68 2 -41 6 -49 27 -57 14 -5 25 -14 25 -19 0 -6 -7 -8
-16 -4 -15 5 -15 3 0 -26 14 -26 14 -31 2 -31 -8 0 -17 -4 -20 -8 -3 -5 8 -8
23 -7 22 1 28 -2 24 -14 -3 -11 -1 -11 7 2 9 14 9 22 -1 33 -10 12 -9 16 9 21
12 3 22 9 22 14 0 14 28 11 33 -3 2 -7 1 -20 -3 -28 -4 -8 -4 -26 0 -40 l6
-25 13 24 c10 19 10 25 1 31 -7 4 -9 13 -5 19 4 7 2 18 -5 26 -9 11 -7 16 9
24 11 6 31 11 45 11 14 0 28 5 31 11 15 23 -8 21 -75 -6 -57 -23 -72 -26 -85
-15 -8 7 -13 16 -10 20 2 4 -3 14 -13 23 -14 12 -17 29 -15 69 2 28 7 55 11
58 4 3 8 12 9 20 1 8 7 36 12 62 15 70 -15 148 -57 148 -12 0 -11 -4 4 -21z"/>
<path d="M1261 2241 c-18 -12 -19 -128 -1 -144 10 -10 11 -6 6 16 -6 26 -5 27
15 16 21 -11 21 -10 5 12 -21 31 -20 62 2 82 26 24 40 21 35 -7 -7 -35 32 -56
57 -30 10 11 21 29 25 42 6 21 4 22 -62 22 -37 0 -74 -4 -82 -9z"/>
<path d="M1440 2200 c0 -5 -6 -10 -14 -10 -8 0 -17 -3 -20 -8 -2 -4 13 -6 35
-4 33 3 38 7 28 18 -13 16 -29 18 -29 4z"/>
<path d="M1775 2191 c11 -4 34 -11 50 -15 l30 -6 -25 15 c-14 8 -36 14 -50 14
-23 0 -23 -1 -5 -8z"/>
<path d="M1675 1979 c-3 -4 6 -15 19 -24 14 -9 28 -26 32 -37 9 -29 17 -14 10
19 -7 28 -51 59 -61 42z"/>
<path d="M2234 1963 c-21 -4 -31 -28 -36 -83 0 -8 -4 -17 -7 -20 -6 -5 -41
-77 -41 -85 0 -2 7 -2 16 2 12 4 15 2 12 -8 -3 -8 -12 -13 -21 -11 -11 2 -15
-2 -11 -13 3 -8 2 -15 -4 -15 -6 0 -20 -16 -33 -36 -18 -29 -19 -38 -8 -45 11
-6 9 -10 -8 -16 -11 -4 -40 -29 -63 -55 -23 -27 -46 -48 -50 -48 -5 0 -34 -25
-66 -55 -56 -53 -92 -74 -63 -37 8 10 4 8 -7 -4 -59 -61 -181 -84 -306 -58
-27 5 -138 115 -138 136 0 8 -3 8 -9 2 -5 -5 -5 -29 0 -59 17 -94 17 -95 2
-95 -9 0 -13 6 -10 14 8 20 -4 28 -20 15 -7 -6 -13 -8 -13 -4 0 4 -6 2 -14 -4
-12 -10 -16 -5 -21 31 -3 24 -4 71 -2 105 2 47 -1 64 -12 68 -8 3 -19 1 -25
-5 -8 -8 -6 -9 7 -5 19 8 24 -10 6 -21 -8 -4 -7 -9 2 -14 10 -7 10 -12 0 -23
-9 -12 -9 -16 1 -19 10 -4 10 -8 2 -19 -6 -8 -14 -26 -18 -41 -5 -21 -3 -28 9
-28 17 0 20 -16 5 -25 -23 -14 -7 -23 35 -20 46 3 54 -2 33 -23 -9 -9 -6 -12
15 -12 15 0 27 -4 27 -10 0 -5 11 -10 24 -10 14 0 28 5 31 10 10 16 25 12 19
-5 -4 -8 -12 -15 -19 -15 -16 0 -47 -35 -38 -44 4 -4 15 3 25 16 16 20 18 21
12 3 -4 -15 1 -13 20 9 13 17 24 35 23 40 -1 6 17 11 41 12 23 0 45 4 49 7 16
17 24 5 8 -13 -17 -19 -17 -20 1 -20 16 0 17 -2 4 -10 -13 -8 -12 -10 3 -10 9
0 17 6 17 14 0 8 7 17 16 20 12 4 15 2 10 -9 -4 -12 0 -14 22 -9 37 9 42 13
42 30 0 8 5 14 11 14 5 0 7 -5 3 -12 -5 -8 0 -9 17 -5 13 4 27 7 32 7 4 0 7 6
7 14 0 7 7 20 16 27 15 12 16 11 10 -7 -6 -18 -2 -22 23 -26 25 -4 28 -1 27
19 -1 25 -16 32 -16 8 0 -8 -5 -15 -11 -15 -6 0 -8 7 -5 16 3 9 6 18 6 20 0 2
5 4 12 4 6 0 20 8 30 17 13 12 18 13 16 4 -2 -8 8 -14 24 -16 21 -3 26 0 25
16 -1 10 -7 19 -15 19 -7 0 -10 -4 -7 -10 3 -5 1 -10 -5 -10 -7 0 -9 7 -6 16
3 9 6 18 6 20 0 2 7 4 15 4 8 0 21 14 30 30 15 30 28 35 73 31 17 -1 22 3 22
24 0 14 5 25 11 25 5 0 8 4 5 9 -8 13 21 34 35 25 8 -4 9 -3 5 5 -5 7 3 20 18
32 26 21 35 49 15 49 -5 0 -7 5 -3 11 4 8 9 7 15 -2 6 -11 13 -8 31 10 14 16
18 26 10 29 -7 2 -12 8 -12 14 0 5 8 7 19 3 10 -3 23 1 30 9 12 14 5 46 -11
46 -5 0 -6 5 -3 10 9 15 25 12 25 -5 0 -22 12 -18 44 15 21 23 27 36 22 55 -6
24 -26 35 -26 15 0 -5 5 -10 10 -10 7 0 7 -6 0 -20 -11 -21 -30 -27 -30 -9 0
5 4 7 10 4 6 -3 7 1 4 10 -5 12 -9 13 -21 4 -9 -9 -11 -15 -3 -23 5 -5 10 -17
10 -25 -1 -13 -4 -12 -15 3 -14 19 -15 19 -35 1 -30 -27 -24 -4 10 35 29 35
39 57 20 45 -5 -3 -10 -1 -10 5 0 7 8 9 19 5 11 -3 22 -1 26 6 10 16 -16 36
-41 32z m-14 -173 c0 -6 -6 -10 -14 -10 -16 0 -38 24 -30 33 9 8 44 -11 44
-23z m-800 -329 c0 -11 9 -21 21 -24 14 -4 20 -11 16 -21 -3 -8 1 -20 9 -27
12 -10 12 -14 2 -20 -10 -7 -9 -9 5 -9 9 0 17 -4 17 -10 0 -5 -9 -10 -20 -10
-11 0 -20 -4 -20 -10 0 -5 -7 -10 -15 -10 -18 0 -20 20 -2 21 10 0 10 2 0 6
-7 2 -12 17 -12 31 2 24 2 24 6 5 2 -13 9 -23 15 -23 5 0 7 7 4 16 -3 9 -6 22
-6 29 0 7 -8 12 -17 11 -12 -1 -18 8 -20 32 -1 17 2 32 7 32 6 0 10 -8 10 -19z"/>
<path d="M2334 1841 c-21 -17 -22 -18 -3 -30 11 -6 17 -16 14 -21 -4 -6 7 -7
27 -3 44 8 45 11 15 22 -26 10 -43 28 -34 37 2 3 11 -2 20 -10 8 -8 17 -12 20
-9 7 6 -18 33 -30 33 -4 -1 -18 -9 -29 -19z"/>
<path d="M2290 1801 c0 -5 -6 -16 -13 -23 -6 -7 -30 -37 -52 -65 -21 -29 -46
-53 -54 -53 -8 0 -11 -3 -8 -7 4 -3 2 -12 -4 -20 -18 -20 5 -15 29 7 12 11 29
20 40 20 10 0 22 4 28 9 5 5 26 14 47 21 36 11 44 20 31 33 -3 3 -15 -3 -27
-14 -23 -21 -52 -25 -62 -8 -10 16 3 23 18 10 11 -8 18 -7 33 7 41 37 46 49
32 71 -13 21 -38 29 -38 12z m14 -40 c3 -4 -3 -16 -14 -26 -19 -17 -24 -16
-17 3 1 4 5 6 9 5 4 -2 5 4 2 12 -6 16 11 21 20 6z"/>
<path d="M2352 1757 c-20 -12 -21 -14 -6 -29 22 -22 64 -5 57 23 -6 22 -19 23
-51 6z"/>
<path d="M1550 1709 c0 -5 8 -9 17 -9 29 0 1 -17 -39 -24 -36 -7 -54 6 -25 17
6 3 8 6 2 6 -5 0 -21 -8 -35 -19 l-25 -20 115 5 c63 2 144 8 180 13 38 5 75 5
90 0 23 -9 23 -8 7 10 -13 14 -32 19 -84 20 -37 0 -61 -3 -54 -7 14 -9 -32
-21 -81 -21 -23 0 -29 4 -24 15 3 8 2 15 -2 16 -4 0 -15 2 -24 4 -10 2 -18 -1
-18 -6z"/>
<path d="M2285 1660 c-4 -6 -10 -8 -15 -5 -4 3 -10 -5 -14 -18 -5 -17 -8 -19
-15 -9 -7 11 -16 10 -50 -7 -22 -12 -41 -19 -41 -16 0 3 -13 -1 -30 -10 -16
-9 -30 -18 -30 -20 0 -3 23 -5 52 -5 48 0 50 1 32 15 -18 14 -17 14 14 15 26
0 32 -4 30 -17 -2 -13 5 -18 34 -20 32 -3 36 -1 31 17 -5 20 -23 28 -23 10 0
-5 -7 -10 -15 -10 -8 0 -15 7 -15 15 0 8 6 15 13 15 7 0 22 8 33 18 11 10 25
17 32 14 7 -2 10 2 6 12 -7 18 -20 21 -29 6z"/>
<path d="M2331 1636 c-10 -12 -9 -19 4 -40 23 -34 8 -33 -21 2 -19 21 -24 23
-24 10 0 -10 5 -18 10 -18 6 0 10 -8 8 -17 -2 -14 5 -19 31 -21 27 -3 33 0 28
12 -3 8 -2 18 3 21 14 9 12 17 -8 43 -16 21 -20 22 -31 8z"/>
<path d="M2425 1598 c-36 -13 -31 -9 -39 -35 -6 -18 -4 -21 15 -16 15 4 20 3
15 -5 -4 -7 -14 -12 -22 -12 -8 0 -14 -4 -14 -9 0 -5 -3 -16 -6 -25 -4 -11 -1
-16 11 -16 11 0 15 5 12 15 -4 9 5 21 23 32 17 9 30 24 30 31 0 12 -3 12 -15
2 -13 -10 -15 -9 -15 8 0 14 5 20 14 16 7 -3 16 2 19 10 4 9 5 16 4 15 -1 0
-15 -5 -32 -11z"/>
<path d="M1702 1584 c-16 -11 -27 -13 -35 -6 -7 6 -24 8 -39 5 -23 -4 -26 -8
-17 -24 10 -19 9 -20 -13 -23 -6 0 -13 -7 -15 -13 -7 -20 25 -15 36 6 12 21
48 34 57 20 8 -13 24 -11 22 3 -2 7 7 17 20 23 12 5 22 13 22 17 0 12 -14 9
-38 -8z"/>
<path d="M2084 1552 c3 -6 -2 -15 -11 -21 -10 -6 -13 -11 -8 -11 6 -1 29 -3
51 -6 36 -5 42 -3 47 15 4 16 0 21 -16 21 -12 0 -33 3 -46 7 -16 4 -22 3 -17
-5z"/>
<path d="M1348 1543 c-12 -3 -18 -14 -18 -33 0 -23 4 -27 19 -23 14 4 19 13
19 34 -1 16 -1 28 -2 28 -1 -1 -9 -3 -18 -6z"/>
<path d="M2201 1542 c-6 -2 -8 -8 -5 -14 4 -6 1 -14 -6 -18 -7 -4 4 -10 27
-13 21 -4 42 -8 47 -9 5 -2 10 9 12 23 2 24 -2 27 -31 31 -18 2 -38 2 -44 0z"/>
<path d="M2297 1519 c6 -6 9 -18 6 -25 -4 -10 3 -14 24 -14 23 0 29 5 31 25 2
23 -2 25 -35 25 -27 0 -34 -3 -26 -11z"/>
<path d="M1967 1481 c-4 -15 2 -20 25 -23 21 -4 32 0 36 11 3 9 10 19 16 23 6
4 -8 8 -30 8 -33 0 -43 -4 -47 -19z"/>
<path d="M2069 1496 c-1 -3 -2 -9 -3 -13 -1 -5 -5 -14 -9 -20 -6 -9 -2 -13 11
-13 11 0 33 -3 50 -6 27 -5 30 -4 30 20 0 20 -5 26 -23 26 -13 0 -30 3 -39 6
-9 3 -17 3 -17 0z"/>
<path d="M2180 1470 c0 -5 10 -10 23 -10 12 0 29 -5 37 -11 11 -8 5 -9 -22 -4
-46 7 -51 -10 -6 -19 25 -5 36 -2 45 11 16 21 8 29 -39 37 -24 4 -38 3 -38 -4z"/>
<path d="M1214 1454 c-2 -8 -6 -20 -8 -28 -3 -8 5 -16 19 -18 19 -4 24 0 27
23 3 21 0 29 -14 33 -11 2 -21 -1 -24 -10z"/>
<path d="M1343 1463 c-7 -2 -13 -18 -13 -34 0 -17 4 -28 9 -25 5 3 7 15 4 26
-3 11 0 20 6 20 6 0 11 -9 11 -20 0 -11 5 -20 11 -20 6 0 8 7 5 16 -3 9 -6 22
-6 30 0 14 -6 16 -27 7z"/>
<path d="M2374 1461 c-2 -2 -22 -4 -44 -3 -29 1 -40 -2 -40 -12 0 -8 -10 -23
-22 -33 -23 -18 -36 -63 -18 -63 6 0 10 9 10 20 0 11 5 20 11 20 6 0 8 -9 4
-21 -5 -15 -4 -19 4 -15 6 4 11 15 11 24 1 9 12 31 26 47 22 26 25 27 19 8 -5
-19 -3 -22 12 -17 10 4 24 14 31 22 11 14 12 14 12 -2 0 -9 5 -14 10 -11 6 4
8 10 5 15 -3 5 2 13 12 18 14 8 12 10 -11 9 -15 -1 -29 -4 -32 -6z"/>
<path d="M1962 1419 c2 -13 11 -23 22 -25 10 -1 23 -9 27 -16 9 -14 10 -12 12
35 1 18 -4 23 -32 25 -29 3 -32 1 -29 -19z"/>
<path d="M2047 1420 c6 -7 9 -19 6 -26 -5 -14 1 -18 50 -28 22 -5 27 -3 27 14
0 11 5 20 12 20 31 0 -12 18 -57 25 -39 5 -47 4 -38 -5z"/>
<path d="M2175 1412 c-6 -4 -11 -18 -12 -32 -3 -21 1 -25 27 -26 18 -1 30 4
30 12 0 7 3 20 7 30 5 13 3 16 -9 12 -9 -4 -20 -2 -24 2 -5 5 -14 6 -19 2z"/>
<path d="M1256 1393 c-4 -4 -17 -8 -28 -8 -12 0 -23 -5 -25 -11 -2 -7 7 -10
23 -8 27 3 52 20 43 29 -3 3 -9 2 -13 -2z"/>
<path d="M1880 1368 c0 -10 0 -21 -1 -25 0 -3 13 -12 29 -18 28 -12 28 -12 28
20 -1 29 -5 34 -28 37 -22 4 -28 1 -28 -14z"/>
<path d="M1955 1340 c0 -24 6 -32 28 -39 34 -12 38 -44 4 -36 -21 6 -22 3 -19
-34 3 -34 7 -40 25 -37 21 3 29 22 27 69 0 27 1 28 32 22 18 -4 37 -8 43 -9 5
0 10 8 11 19 1 11 5 27 8 35 5 12 -2 15 -31 15 -21 -1 -52 5 -70 12 -48 19
-58 17 -58 -17z"/>
<path d="M1243 1345 c-14 -11 -11 -12 21 -10 47 4 55 11 21 17 -14 3 -33 0
-42 -7z"/>
<path d="M1798 1332 c-15 -33 0 -51 75 -91 84 -44 92 -47 81 -30 -4 7 -7 25
-6 40 0 16 -4 29 -9 29 -6 0 -29 9 -52 21 -63 31 -86 39 -89 31z m92 -68 c0
-8 -4 -14 -10 -14 -12 0 -31 35 -23 44 9 8 33 -14 33 -30z"/>
<path d="M2139 1332 c-1 -4 -1 -11 0 -16 1 -4 -4 -14 -10 -22 -9 -11 -9 -14 1
-14 6 0 14 9 17 20 3 11 10 20 15 20 6 0 8 -7 4 -15 -9 -24 8 -17 20 9 10 21
8 23 -18 24 -15 0 -29 -2 -29 -6z"/>
<path d="M1298 1319 c-7 -5 -14 -13 -14 -19 -1 -5 -2 -14 -3 -20 0 -5 -8 -10
-17 -10 -14 0 -14 3 -4 15 11 13 10 14 -3 10 -8 -4 -17 -15 -20 -26 -4 -15 -2
-19 10 -15 8 3 23 6 33 6 11 0 20 10 24 25 4 14 13 25 21 25 17 0 20 -16 5
-25 -15 -9 -12 -25 5 -25 8 0 15 7 15 15 0 8 7 15 16 15 14 0 14 -3 4 -15 -10
-12 -9 -15 8 -15 11 0 22 8 25 20 4 16 0 20 -19 20 -13 0 -24 4 -24 9 0 12
-46 20 -62 10z"/>
<path d="M1751 1313 c-7 -13 -10 -14 -11 -4 0 9 -7 6 -20 -9 -22 -25 -19 -40
4 -21 8 6 19 10 26 9 7 -2 16 7 21 20 10 26 -5 30 -20 5z"/>
<path d="M1675 1290 c-3 -5 -17 -10 -30 -10 -13 0 -26 -4 -29 -9 -3 -5 9 -7
27 -5 17 1 35 3 38 3 4 1 9 8 13 16 6 17 -9 21 -19 5z"/>
<path d="M1188 1270 c-10 -6 -14 -18 -11 -30 4 -16 9 -18 24 -9 10 5 19 19 19
29 0 22 -7 24 -32 10z"/>
<path d="M1520 1269 c0 -6 -9 -8 -20 -4 -20 6 -22 3 -24 -35 -1 -8 -11 -16
-22 -18 -18 -3 -33 -26 -34 -53 0 -3 14 -4 30 -1 26 4 30 9 31 36 1 17 1 34 0
38 0 4 10 10 24 14 14 3 25 12 25 20 0 8 -2 14 -5 14 -3 0 -5 -5 -5 -11z"/>
<path d="M1434 1245 c-4 -8 -10 -15 -16 -15 -5 0 -6 6 -3 13 4 6 -1 3 -10 -8
-9 -11 -18 -30 -22 -42 -3 -13 -9 -23 -15 -23 -5 0 -7 8 -4 18 2 9 7 26 10 37
6 20 0 22 -56 16 -5 -1 -8 -10 -8 -21 0 -11 -4 -20 -10 -20 -5 0 -10 9 -10 21
0 15 -4 19 -16 15 -9 -3 -22 -6 -31 -6 -9 0 -13 -8 -11 -23 1 -12 -5 -32 -13
-45 -14 -20 -18 -21 -29 -7 -10 13 -9 15 9 15 19 0 21 4 15 23 -9 29 -8 29
-27 21 -25 -9 -25 -36 0 -71 14 -19 19 -34 13 -38 -5 -3 -10 2 -10 11 0 10 -3
14 -7 11 -3 -4 -12 -2 -19 4 -14 11 -50 -6 -59 -29 -3 -8 8 -4 25 8 28 20 36
17 31 -12 0 -5 13 -8 29 -8 23 0 30 4 30 20 0 11 -1 21 -2 23 -2 1 7 16 18 32
12 17 19 36 17 43 -3 6 1 12 7 12 9 0 11 -10 7 -30 -4 -17 -2 -30 3 -30 6 0
10 7 10 15 0 8 4 15 10 15 5 0 7 -7 3 -16 -4 -12 -2 -15 8 -12 8 2 18 19 24
36 5 18 15 32 22 32 18 0 16 -21 -3 -48 -15 -21 -14 -22 20 -22 34 0 43 9 37
43 -1 4 10 12 24 17 14 5 25 16 25 25 0 19 -9 19 -16 0z"/>
<path d="M1699 1255 c-5 -19 -7 -26 -8 -35 0 -5 -8 -10 -17 -10 -11 0 -14 6
-9 20 6 18 3 20 -22 15 -47 -11 -50 -13 -56 -35 -5 -19 -2 -20 36 -16 67 7
117 -4 127 -28 8 -20 9 -20 11 -1 1 11 2 36 2 55 0 32 -2 35 -31 37 -18 2 -33
1 -33 -2z m47 -26 c3 -6 2 -15 -2 -19 -12 -12 -38 5 -30 19 9 14 23 14 32 0z"/>
<path d="M1788 1228 c15 -15 16 -45 1 -50 -10 -3 64 -48 80 -48 4 0 5 15 3 32
-5 30 -4 32 12 19 9 -8 16 -24 14 -35 -1 -12 2 -22 7 -23 6 -1 9 7 7 19 -3 13
1 19 10 16 7 -3 12 -16 10 -28 -3 -26 0 -25 17 7 10 20 8 24 -31 43 -24 11
-56 29 -73 40 -35 21 -77 28 -57 8z m60 -47 c5 -30 -18 -24 -29 8 -7 18 -6 22
9 19 9 -2 19 -14 20 -27z"/>
<path d="M1530 1221 c-17 -5 -26 -15 -28 -33 -3 -25 -1 -26 24 -19 19 5 30 16
35 34 4 15 4 27 1 26 -4 -1 -18 -4 -32 -8z"/>
<path d="M2475 1175 c-11 -30 -26 -57 -35 -60 -8 -2 -37 -9 -65 -15 -62 -13
-126 -40 -120 -51 3 -4 18 -1 33 6 15 8 57 22 92 31 36 9 70 21 76 27 14 15
48 107 42 113 -3 2 -13 -21 -23 -51z"/>
<path d="M494 1202 c3 -3 -8 -20 -24 -39 -17 -18 -30 -42 -30 -53 0 -10 -4
-22 -10 -25 -5 -3 -7 -26 -4 -50 5 -43 -2 -51 -31 -33 -42 25 -221 26 -278 1
-46 -20 -78 -74 -70 -118 6 -32 45 -91 75 -113 24 -17 23 -33 -4 -67 -22 -28
-35 -100 -16 -89 6 4 8 1 6 -7 -3 -8 3 -24 12 -36 11 -14 16 -35 14 -57 -3
-19 4 -56 15 -84 11 -27 17 -53 14 -56 -4 -3 -2 -6 4 -6 20 0 20 -63 1 -114
-12 -35 -16 -61 -11 -81 4 -16 8 -34 9 -40 0 -5 5 -21 11 -34 17 -41 21 -9 7
48 -14 53 -7 118 16 146 10 12 -15 119 -36 158 -11 20 -14 40 -9 68 5 30 3 45
-9 58 -30 33 -31 83 -3 127 25 41 23 76 -5 86 -8 3 -26 24 -42 47 -23 33 -27
47 -22 76 9 47 40 66 129 76 60 6 84 4 142 -12 92 -27 115 -42 115 -78 0 -48
-28 -63 -142 -73 -93 -7 -144 -18 -88 -18 30 0 15 -16 -20 -23 -17 -3 -13 -5
15 -6 34 -1 37 -3 22 -12 -11 -6 -30 -9 -43 -6 -13 2 -24 1 -24 -3 0 -15 26
-17 83 -7 42 8 79 7 135 -1 42 -7 99 -12 125 -11 28 0 58 -6 73 -15 l24 -17
-21 -42 c-19 -39 -54 -76 -71 -77 -4 0 6 23 22 50 31 52 36 70 22 70 -4 0 -16
-23 -26 -50 -10 -28 -22 -53 -27 -56 -5 -3 -64 -9 -131 -15 -68 -5 -134 -10
-147 -11 -23 -3 -29 3 -49 52 l-11 25 0 -25 c-1 -14 9 -37 22 -52 20 -25 25
-27 61 -18 22 5 89 12 149 16 l109 6 -18 -28 -19 -29 38 32 c20 18 51 40 67
48 17 9 28 19 26 24 -3 4 2 19 12 32 25 36 23 46 -11 74 -18 14 -37 29 -43 34
-6 5 -30 5 -55 0 -65 -12 -67 -11 -26 16 20 14 37 29 37 32 0 4 -5 2 -12 -5
-18 -18 -28 -15 -21 6 6 15 4 15 -15 -2 -23 -20 -29 -32 -12 -21 5 3 10 2 10
-3 0 -13 -31 -20 -54 -12 -15 5 -12 10 23 33 25 17 43 37 47 55 3 15 7 32 8
37 2 6 -9 20 -23 32 -26 23 -26 23 -3 23 13 0 22 -6 22 -16 0 -8 5 -12 11 -9
7 5 5 13 -6 25 -20 22 -10 44 16 37 11 -3 19 -1 19 4 0 5 9 9 20 9 20 0 23
-19 5 -32 -5 -4 0 -8 13 -8 13 0 20 4 17 10 -3 6 1 7 10 4 11 -5 14 -2 9 10
-3 9 -11 16 -18 16 -6 0 -4 5 4 11 13 9 12 10 -2 5 -10 -3 -20 -1 -23 4 -4 6
-20 10 -36 10 -32 0 -85 -43 -74 -60 3 -6 2 -10 -3 -10 -33 0 -11 134 28 175
28 29 70 33 92 8 24 -28 57 -140 44 -153 -7 -7 -6 -10 2 -10 7 0 12 4 12 8 0
4 13 12 28 18 16 6 29 18 29 27 0 14 -3 14 -16 4 -12 -10 -14 -9 -8 6 4 10 3
16 -1 13 -12 -7 -37 25 -40 54 -5 38 -42 69 -95 79 -26 5 -46 6 -43 3z"/>
<path d="M820 1171 c0 -5 -7 -17 -16 -25 -14 -15 -14 -16 3 -16 17 -1 17 -1 1
-11 -10 -5 -18 -18 -18 -28 0 -38 -44 -72 -62 -46 -5 6 -8 3 -8 -7 0 -10 -5
-18 -10 -18 -13 0 -7 -50 6 -51 5 0 11 10 14 22 3 12 11 24 19 27 8 3 5 -10
-9 -37 -11 -23 -25 -39 -30 -36 -6 3 -18 1 -27 -5 -16 -9 -15 -10 5 -5 13 4
22 2 22 -4 0 -6 -19 -11 -44 -11 -64 0 -106 -17 -105 -43 0 -21 1 -21 10 1 9
24 29 22 29 -4 0 -10 13 -14 49 -14 27 0 51 3 53 8 2 4 21 4 43 1 22 -3 30 -7
19 -8 -12 0 -25 -8 -28 -17 -4 -11 -1 -14 12 -10 9 3 31 8 47 12 17 4 36 11
43 17 9 7 16 8 20 0 4 -5 23 -13 42 -17 39 -7 67 -22 59 -31 -4 -3 -18 -1 -33
5 -15 5 -44 10 -64 9 -35 0 -36 -1 -12 -10 14 -6 44 -12 68 -14 33 -3 44 0 52
15 11 21 -3 37 -47 50 -26 8 -25 8 15 9 23 1 42 6 42 11 0 6 -8 10 -17 10 -12
0 -18 8 -18 24 l0 25 22 -21 22 -21 18 31 c16 27 23 31 56 30 22 -1 36 -6 34
-12 -2 -6 -18 -10 -35 -8 -32 3 -43 -10 -20 -24 7 -4 8 -3 4 4 -5 8 -2 10 8 6
9 -3 14 -10 11 -14 -4 -7 51 16 64 26 2 2 -1 9 -7 16 -7 9 -6 17 3 25 10 9 14
10 17 1 3 -7 7 -5 11 5 5 13 1 17 -19 17 -14 0 -23 4 -20 8 7 11 66 2 66 -10
0 -16 24 -35 40 -31 8 2 4 -2 -9 -10 -13 -8 -19 -16 -13 -18 6 -2 14 -18 18
-35 6 -31 5 -32 -36 -39 -36 -6 -44 -4 -56 14 -18 26 -40 27 -49 4 -5 -14 -3
-15 6 -6 12 12 39 7 39 -8 0 -5 -10 -9 -22 -9 -13 0 -29 -4 -36 -9 -22 -13
138 0 166 15 23 12 27 11 40 -7 8 -11 11 -23 7 -27 -4 -4 -10 -1 -12 6 -8 21
-20 13 -17 -10 1 -13 3 -26 3 -31 1 -4 6 -6 13 -5 8 2 15 -15 18 -44 3 -27 2
-48 -2 -48 -14 0 -8 -20 12 -40 12 -12 18 -25 15 -30 -11 -18 -14 -51 -4 -45
16 10 10 -19 -10 -44 l-18 -24 -23 57 c-13 31 -28 56 -34 56 -5 0 -6 3 -3 7 4
3 0 14 -9 24 -8 9 -16 26 -17 38 -1 15 -11 24 -37 31 -44 12 -50 12 -50 0 0
-5 15 -10 34 -10 21 0 36 -6 39 -15 5 -11 0 -13 -23 -8 -25 4 -35 -1 -69 -36
-27 -29 -38 -47 -34 -59 4 -9 -16 6 -43 35 -27 29 -71 61 -98 74 -52 22 -166
38 -166 23 0 -5 12 -11 28 -12 123 -9 159 -23 219 -83 45 -44 62 -92 64 -179
2 -65 -10 -140 -22 -140 -5 0 -9 -11 -9 -25 0 -14 5 -25 10 -25 6 0 10 5 10
11 0 5 5 7 10 4 6 -3 13 1 16 9 12 32 31 14 58 -52 15 -38 37 -74 49 -82 12
-7 32 -20 45 -28 12 -8 22 -10 22 -6 0 5 -14 18 -30 29 -29 19 -48 51 -37 61
3 3 23 -4 46 -16 56 -28 52 -20 -9 18 -51 32 -104 103 -115 155 -4 15 -11 27
-16 27 -5 0 -9 7 -9 16 0 14 2 15 18 3 15 -12 15 -12 5 1 -6 8 -14 51 -18 95
-7 78 -6 82 20 113 44 53 88 38 110 -36 8 -26 61 -108 76 -117 5 -4 9 -11 9
-16 0 -6 -4 -7 -10 -4 -5 3 -10 -3 -10 -14 0 -42 18 -28 35 28 10 33 35 83 57
111 22 29 37 54 34 57 -11 11 -34 -7 -47 -36 -19 -42 -28 -39 -26 9 1 22 5 40
10 40 4 0 5 -4 2 -10 -3 -5 -1 -10 4 -10 6 0 11 6 11 13 1 17 29 52 36 44 4
-4 1 -13 -5 -21 -10 -12 -9 -15 11 -13 12 1 31 10 40 19 17 17 15 22 -4 19
-12 -2 -9 12 7 33 8 11 21 16 30 13 8 -4 15 -2 15 3 0 6 -7 10 -15 10 -8 0
-15 4 -15 10 0 5 14 8 30 7 20 -1 29 -6 25 -15 -3 -8 -5 -17 -5 -21 0 -5 -22
-39 -50 -76 -27 -37 -50 -76 -50 -86 0 -12 -5 -16 -14 -13 -16 6 -31 -29 -20
-48 5 -7 2 -9 -7 -6 -11 4 -14 -6 -15 -47 -1 -28 -7 -62 -14 -74 -11 -21 -8
-27 23 -60 59 -60 104 -144 116 -219 19 -105 21 -112 32 -112 18 0 2 130 -25
195 -13 33 -33 70 -45 83 -12 13 -21 27 -21 30 0 4 -13 21 -28 37 -16 17 -28
39 -27 50 6 64 41 151 71 176 8 6 14 17 14 25 0 7 24 32 54 56 30 24 55 47 55
51 1 5 -17 -6 -39 -23 -23 -18 -43 -30 -45 -28 -9 9 41 68 68 79 15 6 27 15
27 20 0 13 -14 11 -28 -3 -7 -7 -12 -8 -12 -4 0 12 32 35 48 36 7 0 10 -4 7
-10 -14 -23 18 -7 80 39 36 27 61 52 55 56 -5 3 -20 -3 -32 -14 -12 -12 -42
-24 -70 -27 -31 -4 -48 -11 -48 -20 0 -8 -4 -14 -10 -14 -5 0 -10 7 -10 15 0
11 -11 15 -36 15 -21 0 -33 -4 -29 -10 3 -5 -3 -10 -14 -10 -12 0 -20 5 -19
11 2 6 -12 13 -29 15 -36 4 -42 -6 -18 -30 8 -8 15 -18 15 -22 0 -3 -7 -1 -15
6 -9 8 -15 9 -15 2 0 -6 5 -14 10 -17 6 -4 8 -11 5 -16 -4 -5 -1 -9 4 -9 6 0
11 4 11 8 0 5 7 17 16 28 14 18 15 18 8 -6 -4 -14 -14 -36 -22 -49 l-16 -24
-9 27 c-11 32 -18 33 -36 5 -11 -18 -11 -23 0 -30 11 -7 11 -11 1 -21 -10 -10
-15 -9 -27 3 -19 19 -25 100 -7 106 7 3 12 1 11 -4 -4 -20 3 -20 25 0 22 20
23 23 8 31 -9 6 -29 9 -44 7 -20 -2 -28 2 -28 13 0 12 10 16 36 16 19 0 33 4
29 9 -3 5 -21 7 -40 4 -30 -5 -34 -3 -32 16 1 21 37 32 37 11 0 -5 4 -10 8
-10 5 0 8 15 7 32 -1 25 -6 33 -21 34 -44 2 -51 5 -61 27 -9 19 -8 26 6 35 14
11 13 12 -5 7 -25 -6 -49 18 -40 40 4 11 -2 15 -24 15 -17 0 -30 -5 -30 -11 0
-6 9 -8 20 -4 23 7 28 -10 5 -19 -21 -8 -43 3 -47 21 -2 13 -8 11 -28 -9 -19
-21 -29 -24 -48 -17 -20 8 -23 6 -20 -8 2 -11 11 -17 21 -15 21 4 22 -14 1
-22 -25 -10 -34 -7 -34 10 0 8 -5 12 -11 9 -6 -4 -8 -13 -5 -21 3 -7 -3 -18
-13 -24 -14 -7 -23 -5 -36 10 -10 11 -15 20 -10 20 4 0 0 12 -10 26 -13 20
-14 28 -4 40 6 8 13 30 14 49 1 27 -1 31 -9 21 -7 -9 -18 -11 -31 -6 -18 7
-19 8 -2 15 9 4 17 12 17 18 0 8 -3 8 -11 0 -6 -6 -18 -9 -26 -6 -8 3 -13 0
-11 -8 2 -8 -8 -14 -27 -15 -24 -2 -27 -1 -12 7 9 6 17 18 17 27 -1 16 -2 16
-14 0 -18 -24 -29 -23 -21 2 3 11 4 20 1 20 -3 0 -6 -4 -6 -9z m118 -88 c4
-24 -12 -31 -24 -12 -4 7 -27 10 -60 7 -40 -3 -54 -1 -54 8 0 8 18 14 48 17
77 6 87 4 90 -20z m-23 -65 c9 -24 19 -48 22 -55 3 -8 -24 -13 -96 -15 -56 -2
-101 -1 -101 1 0 2 14 28 31 57 30 54 31 54 79 54 47 0 48 -1 65 -42z m23 -97
c-3 -17 -35 -22 -55 -8 -6 4 -14 4 -17 -2 -3 -5 -26 -9 -51 -9 -25 0 -58 -3
-75 -7 -25 -5 -29 -4 -24 9 3 9 10 14 14 11 4 -3 10 1 13 8 3 8 34 12 101 13
83 0 96 -2 94 -15z m-238 -26 c0 -8 -16 -13 -42 -13 -45 -1 -61 5 -53 17 8 14
95 10 95 -4z m378 -522 c-1 -16 -8 -37 -15 -48 -13 -19 -13 -19 -13 2 0 24 17
73 25 73 2 0 4 -12 3 -27z"/>
<path d="M1575 1150 c-3 -5 -4 -10 0 -10 3 0 1 -10 -6 -21 -6 -12 -11 -37 -11
-55 0 -23 -5 -34 -14 -34 -11 0 -13 7 -8 28 7 24 6 26 -9 13 -9 -7 -14 -17
-11 -22 3 -5 -1 -9 -9 -9 -23 0 -9 48 16 52 13 2 23 14 28 32 7 25 6 27 -14
22 -12 -3 -28 -6 -36 -6 -7 0 -11 -6 -8 -15 4 -8 2 -17 -3 -20 -5 -3 -7 -12
-4 -20 3 -8 -2 -22 -11 -32 -17 -16 -16 -18 12 -25 52 -14 258 -46 265 -42 3
2 4 13 1 24 -3 13 0 20 8 20 27 1 -15 18 -61 25 -37 6 -43 5 -32 -6 20 -21 15
-41 -10 -37 -17 2 -23 10 -23 28 0 21 -6 26 -33 28 -21 2 -32 9 -32 19 0 12 7
14 35 9 30 -6 35 -4 35 13 0 11 3 26 6 35 5 13 -1 16 -29 16 -20 0 -39 -4 -42
-10z m43 -112 c-3 -7 -13 -13 -23 -13 -10 0 -20 6 -22 13 -3 7 5 12 22 12 17
0 25 -5 23 -12z m103 -8 c26 -14 24 -32 -3 -28 -13 2 -24 11 -26 21 -4 20 2
21 29 7z"/>
<path d="M1244 1115 c-2 -20 3 -25 22 -25 34 0 38 2 40 28 2 19 -2 22 -29 22
-27 0 -32 -4 -33 -25z"/>
<path d="M1330 1118 c0 -10 0 -21 0 -25 0 -4 12 -7 27 -7 21 0 27 5 30 25 3
23 0 26 -27 26 -22 0 -30 -5 -30 -19z"/>
<path d="M1419 1135 c-1 0 -3 -12 -4 -27 -3 -23 -1 -26 23 -24 21 2 28 9 30
29 3 21 -1 25 -22 23 -14 0 -27 -1 -27 -1z"/>
<path d="M1233 1056 c0 -17 122 -19 136 -2 9 11 6 13 -16 12 -16 -1 -34 -5
-40 -9 -7 -5 -13 -4 -13 1 0 6 -15 10 -33 10 -19 0 -34 -5 -34 -12z"/>
<path d="M1398 1059 c-26 -15 -22 -24 11 -25 17 -1 32 6 40 18 6 10 7 18 2 18
-6 0 -13 -4 -16 -10 -3 -5 -11 -10 -16 -10 -6 0 -7 5 -4 10 8 12 5 12 -17 -1z"/>
<path d="M1283 995 c0 -21 4 -25 31 -25 26 0 31 4 32 25 2 22 -2 25 -31 25
-28 0 -32 -3 -32 -25z"/>
<path d="M1369 1016 c0 -1 -2 -12 -4 -27 -3 -22 0 -25 29 -26 29 -1 33 2 33
26 0 24 -4 28 -29 28 -15 0 -28 -1 -29 -1z"/>
<path d="M1450 991 c0 -12 -1 -24 -2 -28 -5 -14 111 -31 150 -23 20 5 57 8 80
7 24 -1 48 3 52 9 6 7 -2 10 -23 11 -49 2 -121 11 -141 19 -12 5 -19 1 -23
-15 -5 -21 -14 -26 -26 -14 -4 3 -2 12 4 19 10 12 8 13 -53 30 -13 4 -18 0
-18 -15z"/>
<path d="M640 983 c-31 -12 -41 -25 -29 -39 6 -8 19 -14 28 -14 9 0 12 3 6 8
-13 9 -18 32 -7 32 4 0 12 -4 18 -10 6 -6 15 -6 24 0 13 9 13 10 0 10 -13 0
-13 1 0 10 12 8 11 10 -5 9 -11 0 -27 -3 -35 -6z"/>
<path d="M2221 859 c-47 -38 -163 -121 -258 -184 -96 -64 -171 -120 -168 -125
3 -6 9 -10 12 -10 4 0 3 3 0 6 -6 7 35 44 48 44 4 0 24 14 45 30 21 17 41 30
45 30 4 0 47 27 96 60 48 33 93 60 99 60 6 0 8 5 5 10 -3 6 0 10 8 10 8 0 20
7 27 15 7 8 17 12 23 8 6 -3 7 -1 3 5 -4 7 9 22 31 36 59 38 100 75 83 75 -8
-1 -53 -32 -99 -70z"/>
<path d="M1370 860 c0 -5 19 -10 42 -10 49 0 45 9 -6 16 -20 2 -36 0 -36 -6z"/>
<path d="M880 750 c30 -11 72 -34 95 -52 31 -24 35 -26 17 -7 -12 14 -19 29
-15 34 5 4 3 5 -3 2 -6 -3 -32 5 -59 18 -27 14 -58 25 -69 25 -12 -1 4 -10 34
-20z"/>
<path d="M697 698 c2 -5 23 -8 47 -8 64 0 135 -25 192 -69 l52 -39 -22 33
c-11 18 -24 31 -28 28 -5 -2 -8 1 -8 6 0 6 -7 11 -16 11 -11 0 -14 5 -10 16 5
14 4 15 -9 4 -13 -11 -15 -10 -10 1 4 10 -4 14 -27 15 -18 0 -63 3 -100 5 -36
2 -64 1 -61 -3z"/>
<path d="M741 663 c-1 -7 -13 -13 -27 -13 -14 0 -23 -4 -20 -9 3 -5 19 -7 36
-5 18 2 28 0 25 -6 -3 -5 3 -7 14 -5 10 2 31 -3 45 -10 19 -10 25 -11 21 -2
-4 7 0 4 8 -5 8 -10 16 -15 19 -12 3 3 20 -9 37 -26 17 -17 31 -28 31 -25 0 4
7 2 15 -5 31 -26 14 9 -19 38 -32 28 -130 72 -161 72 -7 0 -16 6 -18 13 -4 10
-6 10 -6 0z"/>
<path d="M815 656 c82 -26 172 -94 161 -123 -3 -7 -1 -13 4 -13 21 0 8 31 -26
66 -39 39 -126 84 -159 83 -11 0 -2 -6 20 -13z"/>
<path d="M570 541 c-8 -5 -31 -11 -51 -15 -32 -6 -39 -13 -57 -54 -28 -67 -35
-115 -22 -163 12 -45 49 -89 75 -89 10 0 5 10 -16 28 -28 25 -32 36 -35 84 -2
50 12 117 28 133 3 3 3 -16 0 -43 -6 -68 25 -136 94 -202 44 -42 61 -53 87
-52 19 0 26 -2 18 -7 -7 -5 24 -7 69 -6 44 1 84 6 88 10 4 4 -15 4 -43 1 -33
-5 -66 -2 -98 8 -27 8 -56 12 -65 9 -9 -4 -13 -2 -9 4 3 5 -14 27 -40 48 -50
42 -93 121 -93 171 0 72 30 112 101 132 29 9 30 10 9 11 -14 0 -32 -3 -40 -8z"/>
<path d="M1173 538 c-25 -12 -37 -35 -23 -43 6 -4 10 -1 10 5 0 6 4 9 9 6 4
-3 13 6 19 19 7 14 11 25 9 24 -1 0 -12 -5 -24 -11z"/>
<path d="M775 531 c-2 -5 6 -12 19 -15 14 -3 39 -18 58 -33 18 -15 27 -20 19
-10 -7 9 -10 17 -5 17 10 0 -43 33 -68 43 -10 3 -20 2 -23 -2z"/>
<path d="M209 520 c-3 -34 4 -56 22 -75 10 -11 19 -14 19 -8 0 6 -7 16 -15 23
-9 7 -12 16 -7 19 4 3 2 17 -5 31 -8 16 -13 19 -14 10z"/>
<path d="M1680 483 c-62 -48 -85 -74 -29 -32 26 19 55 39 65 45 11 7 17 14 14
17 -3 2 -25 -11 -50 -30z"/>
<path d="M743 500 c-13 -5 -23 -14 -23 -20 0 -5 -5 -9 -11 -7 -6 1 -14 -5 -16
-13 -4 -13 -3 -13 6 0 9 13 11 12 11 -6 0 -25 36 -74 53 -74 7 0 4 5 -6 11
-43 25 -40 99 3 99 11 0 20 5 20 10 0 12 -7 12 -37 0z"/>
<path d="M813 475 c4 -8 2 -17 -3 -20 -13 -8 -13 -25 0 -25 6 0 10 8 11 18 1
9 5 1 9 -18 6 -23 5 -40 -3 -50 -10 -13 -10 -13 6 -1 21 17 22 43 2 81 -16 31
-32 42 -22 15z"/>
<path d="M1311 436 c-6 -16 -10 -34 -8 -40 3 -6 10 2 16 18 6 16 10 34 8 40
-3 6 -10 -2 -16 -18z"/>
<path d="M328 423 c-38 -9 -68 -20 -68 -24 0 -14 19 -11 100 15 85 28 68 32
-32 9z"/>
<path d="M292 326 c2 -10 14 -27 28 -38 20 -15 31 -17 50 -9 24 9 24 10 -7 10
-22 1 -38 9 -53 29 -16 21 -20 23 -18 8z"/>
<path d="M558 315 c16 -31 84 -93 117 -106 45 -17 102 -27 115 -19 6 4 -8 10
-31 14 -67 11 -125 41 -170 88 -22 24 -36 34 -31 23z"/>
<path d="M970 286 c-6 -19 -22 -46 -35 -60 -17 -18 -20 -26 -10 -26 23 0 18
-11 -30 -72 -55 -70 -35 -80 23 -12 65 77 104 147 94 173 -8 21 -9 20 -20 -16
-7 -22 -21 -48 -32 -58 -27 -24 -25 -14 5 31 14 20 25 45 25 55 0 28 -7 23
-20 -15z"/>
<path d="M220 238 c0 -23 43 -72 59 -67 7 3 -1 19 -24 44 -24 27 -35 35 -35
23z"/>
<path d="M512 188 c-7 -7 -12 -19 -12 -28 0 -18 -34 -87 -64 -132 -15 -23 -16
-28 -3 -28 8 0 17 8 21 18 3 9 19 42 35 72 16 30 28 57 26 60 -2 3 5 6 15 6
12 0 30 -20 52 -59 18 -32 38 -63 45 -69 23 -19 14 8 -19 60 -18 27 -41 63
-50 81 -19 34 -28 37 -46 19z"/>
<path d="M947 113 c-8 -13 26 -49 53 -58 34 -11 35 2 1 19 -16 9 -34 23 -39
32 -5 9 -12 12 -15 7z"/>
<path d="M812 31 c5 -17 45 -33 53 -21 3 5 -4 14 -15 20 -15 8 -20 8 -20 -2 0
-9 -3 -9 -11 2 -8 12 -10 12 -7 1z"/>
</g>
</svg>
